<svg xmlns="http://www.w3.org/2000/svg" viewBox="0 0 367.79 331.33"><defs><style>.cls-1{fill:#ff1a3e;}</style></defs><g id="Layer_2" data-name="Layer 2"><g id="Layer_1-2" data-name="Layer 1"><path class="cls-1" d="M367.42,108.33c.43,3.88.55,7.41,0,15-.48,3.08-1,6.16-1.45,9.25C360.37,170.66,344.43,204,319.35,233c-29.23,33.72-64.84,59.6-103.14,81.93-10.29,6-21.18,11-31.79,16.43h-1a25.69,25.69,0,0,0-2.89-1.8A411.2,411.2,0,0,1,57.22,242.58c-26.9-27.46-44.95-60-53.17-97.72-1.54-7.11-2.43-14.35-3.63-21.53-.67-5.06-.45-9,0-16C1,99.19,2.43,97,3.62,91.84,14,46.65,40.31,16.22,85.88,4.14A113.09,113.09,0,0,1,110.42.33a45.92,45.92,0,0,1,11,0c3.55.42,5.49,1.09,8.24,1.63,19.08,3.73,34.67,13.83,48.75,26.68,1.8,1.64,3.59,3.29,5.45,5,3-2.69,5.56-5,8.19-7.33C205.52,14.57,220.39,5.48,238.23,2,241,1.49,243.69.89,246.42.33a51.76,51.76,0,0,1,11,0C264,1.19,270.66,1.57,277.1,3c44.33,9.89,72.39,37.21,85,80.56C364.46,91.65,366.85,99.3,367.42,108.33ZM183.74,93c-5.05-6.65-9.75-13.31-14.94-19.57C151.56,52.73,130,43.74,103.13,50.25c-44.36,10.73-58.91,49.9-55.52,78,3.49,28.92,15.44,54.36,34.28,76.33,27.25,31.76,61,55.45,97.16,75.92,3.13,1.76,5.56,1.73,8.68,0,29.1-16.2,56.12-35.25,80.41-58.08,15.41-14.49,28.56-30.73,37.72-50,9.82-20.59,16.6-41.86,12.69-65.06-5-29.42-21.54-49-50.63-56.75-28.42-7.57-51.82.94-70.05,23.86C193.12,80.49,188.6,86.66,183.74,93Z"/></g></g></svg>